<?xml version="1.0" encoding="utf-8"?>
<!-- Generator: Adobe Illustrator 16.0.3, SVG Export Plug-In . SVG Version: 6.00 Build 0)  -->
<!DOCTYPE svg PUBLIC "-//W3C//DTD SVG 1.1//EN" "http://www.w3.org/Graphics/SVG/1.1/DTD/svg11.dtd">
<svg version="1.1" id="Layer_1" xmlns="http://www.w3.org/2000/svg" xmlns:xlink="http://www.w3.org/1999/xlink" x="0px" y="0px"
	 width="55.804px" height="50px" viewBox="0 0 55.804 50" enable-background="new 0 0 55.804 50" xml:space="preserve">
<g>
	<path fill="#CECBCB" d="M55.804,33.332c0,7.349-6.597,15.047-14.815,16.03C36.648,49.825,32.365,50,28.026,50
		c-4.34,0-8.622-0.175-12.962-0.638C6.847,48.379,0.25,40.681,0.25,33.332c0-4.687,2.72-9.605,6.828-12.789
		c-0.115-0.52-0.115-0.982-0.115-1.504c0-6.018,4.861-10.879,10.879-10.879c0.347,0,0.752,0,1.157,0.058
		C22.009,3.704,27.159,0,32.944,0c9.317,0,17.304,8.275,17.304,17.593c0,1.157-0.289,2.545-0.752,3.356
		C53.314,24.132,55.804,28.817,55.804,33.332z M31.731,40.972c0.462-0.695,1.735-5.441,2.43-9.49h6.48
		c0.638,0,1.273-0.348,1.62-0.928c0.291-0.635,0.291-1.331-0.114-1.908c-4.92-7.349-12.675-13.542-12.964-13.773
		c-0.694-0.521-1.619-0.521-2.314,0c-0.348,0.231-8.043,6.424-12.963,13.773c-0.404,0.577-0.404,1.273-0.114,1.908
		c0.346,0.58,0.982,0.928,1.619,0.928h6.481c0.695,4.049,1.968,8.795,2.432,9.49c0.694,0.982,1.851,1.62,3.703,1.62
		S31.035,41.954,31.731,40.972z"/>
</g>
</svg>
