<?xml version="1.0" encoding="utf-8"?>
<!-- Generator: Adobe Illustrator 16.0.0, SVG Export Plug-In . SVG Version: 6.00 Build 0)  -->
<!DOCTYPE svg PUBLIC "-//W3C//DTD SVG 1.1//EN" "http://www.w3.org/Graphics/SVG/1.1/DTD/svg11.dtd">
<svg version="1.1" id="Layer_1" xmlns="http://www.w3.org/2000/svg" xmlns:xlink="http://www.w3.org/1999/xlink" x="0px" y="0px"
	 width="612px" height="792px" viewBox="0 0 612 792" enable-background="new 0 0 612 792" xml:space="preserve">
<g>
	<path fill="#CCCCCC" d="M81.545,12.282c0,0-19.737,28.174-21.352,30.414c-2.188,2.969-6.354,3.125-8.645,0
		C49.986,40.508,37.07,22.334,37.07,22.334c-0.677-0.99-0.625-2.292,0.208-3.021c1.823-1.562,3.802-2.916,5.937-4.114
		c0.938-0.469,2.188-0.104,2.864,0.885l9.791,13.749L72.588,6.084c0.678-0.99,1.928-1.354,2.865-0.833
		c2.082,1.146,4.061,2.448,5.885,4.062C82.17,9.99,82.223,11.292,81.545,12.282z"/>
</g>
<g>
	<path fill="#FFFFFF" d="M86.545,12.282c0,0-19.737,28.174-21.352,30.414c-2.188,2.969-6.354,3.125-8.645,0
		C54.986,40.508,42.07,22.334,42.07,22.334c-0.677-0.99-0.625-2.292,0.208-3.021c1.823-1.562,3.802-2.916,5.937-4.114
		c0.938-0.469,2.188-0.104,2.864,0.885l9.791,13.749L77.588,6.084c0.678-0.99,1.928-1.354,2.865-0.833
		c2.082,1.146,4.061,2.448,5.885,4.062C87.17,9.99,87.223,11.292,86.545,12.282z"/>
</g>
<g>
	<path fill="#CCCCCC" d="M91.545,12.282c0,0-19.737,28.174-21.352,30.414c-2.188,2.969-6.354,3.125-8.645,0
		C59.986,40.508,47.07,22.334,47.07,22.334c-0.677-0.99-0.625-2.292,0.208-3.021c1.823-1.562,3.802-2.916,5.937-4.114
		c0.938-0.469,2.188-0.104,2.864,0.885l9.791,13.749L82.588,6.084c0.678-0.99,1.928-1.354,2.865-0.833
		c2.082,1.146,4.061,2.448,5.885,4.062C92.17,9.99,92.223,11.292,91.545,12.282z"/>
</g>
<g>
	<path fill="#CDCCCC" d="M44.874,62.577c0,0-19.737,28.174-21.353,30.414c-2.188,2.969-6.354,3.125-8.645,0
		C13.314,90.803,0.398,72.629,0.398,72.629c-0.677-0.99-0.625-2.292,0.208-3.021c1.823-1.562,3.802-2.916,5.938-4.114
		c0.938-0.469,2.188-0.104,2.864,0.885l9.791,13.749L35.916,56.38c0.678-0.99,1.928-1.354,2.864-0.833
		c2.082,1.146,4.062,2.448,5.886,4.062C45.499,60.286,45.551,61.588,44.874,62.577z"/>
</g>
<g>
	<path fill="#FFFFFF" d="M49.874,62.577c0,0-19.737,28.174-21.353,30.414c-2.188,2.969-6.354,3.125-8.645,0
		C18.314,90.803,5.398,72.629,5.398,72.629c-0.677-0.99-0.625-2.292,0.208-3.021c1.823-1.562,3.802-2.916,5.938-4.114
		c0.938-0.469,2.188-0.104,2.864,0.885l9.791,13.749L40.916,56.38c0.678-0.99,1.928-1.354,2.864-0.833
		c2.082,1.146,4.062,2.448,5.886,4.062C50.499,60.286,50.551,61.588,49.874,62.577z"/>
</g>
<g>
	<path fill="#CDCCCC" d="M54.874,62.577c0,0-19.737,28.174-21.353,30.414c-2.188,2.969-6.354,3.125-8.645,0
		c-1.562-2.188-14.479-20.362-14.479-20.362c-0.677-0.99-0.625-2.292,0.208-3.021c1.823-1.562,3.802-2.916,5.938-4.114
		c0.938-0.469,2.188-0.104,2.864,0.885l9.791,13.749L45.916,56.38c0.678-0.99,1.928-1.354,2.864-0.833
		c2.082,1.146,4.062,2.448,5.886,4.062C55.499,60.286,55.551,61.588,54.874,62.577z"/>
</g>
<g>
	<path fill="#FFFFFF" d="M59.874,62.577c0,0-19.737,28.174-21.353,30.414c-2.188,2.969-6.354,3.125-8.645,0
		c-1.562-2.188-14.479-20.362-14.479-20.362c-0.677-0.99-0.625-2.292,0.208-3.021c1.823-1.562,3.802-2.916,5.938-4.114
		c0.938-0.469,2.188-0.104,2.863,0.885l9.791,13.749L50.916,56.38c0.678-0.99,1.928-1.354,2.864-0.833
		c2.082,1.146,4.062,2.448,5.886,4.062C60.499,60.286,60.551,61.588,59.874,62.577z"/>
</g>
<g>
	<path fill="#CDCCCC" d="M64.874,62.577c0,0-19.737,28.174-21.353,30.414c-2.188,2.969-6.354,3.125-8.645,0
		c-1.562-2.188-14.479-20.362-14.479-20.362c-0.677-0.99-0.625-2.292,0.208-3.021c1.823-1.562,3.803-2.916,5.938-4.114
		c0.938-0.469,2.188-0.104,2.863,0.885l9.791,13.749L55.916,56.38c0.678-0.99,1.928-1.354,2.864-0.833
		c2.082,1.146,4.062,2.448,5.886,4.062C65.499,60.286,65.551,61.588,64.874,62.577z"/>
</g>
<g enable-background="new    ">
	<path fill="#CDCCCC" d="M116.581,27.706c-2.292,2.76-3.333,6.197-3.333,9.843c0,3.437,1.042,6.51,2.864,9.113h-1.823
		c-15.78,0-20.623-0.886-20.832-0.938c-0.469-0.052-0.885-0.364-1.146-0.729c-0.26-0.364-0.365-0.885-0.26-1.302
		c0.937-4.427,2.968-7.707,6.926-10.155c1.042-0.625,2.239-1.094,3.489-1.614c2.396-0.989,5.104-2.083,5.625-3.802
		c0.364-1.197-0.26-2.864-1.667-4.947c-4.271-6.822-5.052-12.655-2.292-17.342C106.321,2.188,110.228,0,114.498,0
		s8.229,2.188,10.363,5.833c0.469,0.833,0.886,1.771,1.146,2.708c1.094,3.489,0.312,7.551-1.406,10.728
		c-0.989,1.927-2.604,3.177-4.218,4.583C119.081,24.945,117.675,26.352,116.581,27.706z M116.998,37.496
		c0-6.926,5.573-12.499,12.499-12.499c6.875,0,12.499,5.573,12.499,12.499c0,6.927-5.624,12.499-12.499,12.499
		C122.57,49.995,116.998,44.423,116.998,37.496z M136.162,39.996c0.469,0,0.834-0.364,0.834-0.833V35.83
		c0-0.469-0.365-0.833-0.834-0.833H122.83c-0.469,0-0.833,0.364-0.833,0.833v3.333c0,0.469,0.364,0.833,0.833,0.833H136.162z"/>
</g>
<g>
	<path fill="#CDCCCC" d="M166.565,27.706c-2.292,2.76-3.333,6.197-3.333,9.842c0,3.438,1.042,6.51,2.864,9.114h-1.822
		c-15.78,0-20.623-0.886-20.832-0.938c-0.469-0.051-0.885-0.363-1.146-0.729c-0.26-0.364-0.365-0.885-0.26-1.301
		c0.938-4.428,2.968-7.709,6.926-10.156c1.042-0.625,2.239-1.094,3.489-1.613c2.396-0.99,5.104-2.084,5.625-3.803
		c0.364-1.197-0.261-2.864-1.667-4.947c-4.271-6.822-5.052-12.655-2.292-17.342C156.304,2.188,160.21,0,164.48,0
		s8.229,2.188,10.363,5.833c0.47,0.833,0.886,1.771,1.146,2.708c1.094,3.489,0.312,7.551-1.406,10.728
		c-0.99,1.927-2.604,3.177-4.219,4.583C169.064,24.945,167.659,26.351,166.565,27.706z M166.982,37.497
		c0-6.928,5.572-12.5,12.499-12.5c6.875,0,12.5,5.572,12.5,12.5c0,6.926-5.625,12.498-12.5,12.498
		C172.554,49.995,166.982,44.423,166.982,37.497z M181.146,44.995c0.469,0,0.834-0.364,0.834-0.832v-4.167h4.166
		c0.469,0,0.834-0.364,0.834-0.833v-3.334c0-0.468-0.365-0.832-0.834-0.832h-4.166v-4.166c0-0.469-0.365-0.834-0.834-0.834h-3.332
		c-0.469,0-0.834,0.365-0.834,0.834v4.166h-4.166c-0.469,0-0.832,0.364-0.832,0.832v3.334c0,0.469,0.363,0.833,0.832,0.833h4.166
		v4.167c0,0.468,0.365,0.832,0.834,0.832H181.146z"/>
</g>
<g>
	<path fill="#CDCCCC" d="M241.984,44.995c0,1.875-1.512,3.334-3.334,3.334h-43.329c-1.198,0-2.239-0.625-2.864-1.615
		c-0.625-0.988-0.625-2.238-0.052-3.281l21.664-40.047c0.573-1.042,1.667-1.719,2.917-1.719c1.197,0,2.344,0.677,2.917,1.719
		L241.36,43.07C241.722,43.589,241.984,44.267,241.984,44.995z M217.038,31.976c0.989,0,1.927-0.938,2.083-1.979
		c0.833-4.375,1.25-9.062,1.666-12.967c0.053-0.886-0.572-1.875-1.562-2.083c-1.717-0.312-2.708-0.312-4.425,0
		c-0.937,0.208-1.667,1.198-1.614,2.083c0.417,3.906,0.833,8.593,1.667,12.967c0.156,1.041,1.094,1.979,2.031,1.979H217.038z
		 M220.735,40.048c0-2.082-1.667-3.75-3.75-3.75s-3.75,1.668-3.75,3.75c0,2.084,1.667,3.75,3.75,3.75S220.735,42.132,220.735,40.048
		z"/>
</g>
<g>
	<path fill="#CDCCCC" d="M247.452,44.943c-4.53-4.478-5.468-9.321-5.468-12.552c0-4.217,1.614-8.383,4.322-11.092l8.437-8.28
		c1.979-2.031,4.739-3.021,7.499-3.021c2.864,0,5.729,1.094,7.916,3.229c2.188,2.187,3.49,5.104,3.49,8.176
		c0,2.812-0.99,5.363-2.917,7.291l-4.843,4.529c-1.302,1.304-3.437,1.25-4.687-0.104s-1.198-3.438,0.104-4.739l4.792-4.479
		c0.781-0.729,0.989-1.771,0.989-2.5c0.052-1.302-0.625-2.604-1.562-3.542c-1.615-1.667-4.427-1.771-5.989-0.208l-8.541,8.387
		c-1.094,1.146-2.396,3.386-2.396,6.354c0,1.979,0.677,4.947,3.542,7.812c5.416,5.416,11.562,2.761,13.697,0.625l16.715-16.717
		c1.771-1.771,2.812-4.427,2.763-7.031c-0.054-2.864-1.406-5.572-3.854-7.812c-4.687-4.271-9.271-2.5-11.146-1.354
		c-1.562,0.989-3.593,0.469-4.583-1.094c-0.938-1.562-0.469-3.593,1.094-4.583C269.118,0.833,272.136,0,275.315,0
		c3.75,0,7.5,1.302,10.676,4.322c4.74,4.531,5.938,9.322,5.99,12.603c0.104,4.479-1.615,8.8-4.688,11.875l-16.77,16.717
		c-2.76,2.812-6.874,4.479-11.197,4.479C255.264,49.995,250.994,48.485,247.452,44.943z"/>
</g>
<g>
	<path fill="#CDCCCC" d="M77.87,208.637c-6.37,0.037-10.458-2.724-12.742-5.009c-2.982-2.982-4.787-7.069-4.787-10.899l0.111-11.821
		c-0.037-2.835,1.214-5.487,3.166-7.439c2.025-2.025,4.825-3.277,7.881-3.313c3.094,0,6.077,1.142,8.249,3.312
		c1.988,1.988,3.092,4.492,3.093,7.218l-0.222,6.627c0.001,1.843-1.546,3.314-3.388,3.241c-1.842-0.073-3.278-1.583-3.278-3.425
		l0.221-6.556c0.037-1.067-0.553-1.951-1.068-2.467c-0.884-0.958-2.283-1.399-3.609-1.4c-2.321-0.037-4.383,1.878-4.382,4.087
		l-0.109,11.97c0.037,1.584,0.7,4.088,2.799,6.187c1.399,1.399,3.977,3.02,8.028,3.02c7.66,0,10.128-6.224,10.127-9.243
		l-0.001-23.64c0-2.504-1.142-5.119-3.018-6.925c-2.064-1.987-4.935-2.946-8.25-2.799c-6.334,0.294-8.323,4.788-8.839,6.924
		c-0.405,1.803-2.209,2.872-4.014,2.467c-1.768-0.441-2.872-2.209-2.467-4.015c0.627-2.614,2.172-5.337,4.42-7.585
		c2.652-2.651,6.224-4.383,10.605-4.493c6.555-0.148,10.791,2.393,13.147,4.676c3.241,3.094,5.081,7.365,5.082,11.712l-0.038,23.679
		c0.037,3.939-1.693,8.028-4.75,11.084C86.966,206.686,82.878,208.637,77.87,208.637z"/>
</g>
<g>
	<path fill="#CDCCCC" d="M335.639,31.094c-1.25,0.677-8.957,2.344-16.561,3.488v9.635c0,0.886-0.416,1.719-1.197,2.136
		s-1.719,0.417-2.5-0.052c-11.925-7.5-22.393-19.166-22.809-19.687c-0.781-0.938-0.781-2.292,0-3.177
		c0.417-0.521,10.728-12.03,22.549-19.529c0.418-0.364,0.938-0.573,1.562-0.573c1.354,0,2.396,1.094,2.396,2.448v9.583
		c7.604,1.146,15.311,2.864,16.561,3.489c2.084,1.146,3.439,3.072,3.439,6.145C339.076,28.074,337.723,29.948,335.639,31.094z"/>
</g>
<g>
	<path fill="#CDCCCC" d="M374.968,34.89c0.886,0.834,1.041,2.137,0.363,2.916c-1.51,1.928-3.176,3.595-5.104,5.104
		c-0.777,0.676-2.082,0.521-2.97-0.312l-9.842-9.896l-9.896,9.896c-0.831,0.832-2.135,0.987-2.968,0.312
		c-1.875-1.511-3.542-3.178-5.052-5.053c-0.678-0.832-0.521-2.136,0.312-2.968l9.896-9.896l-9.842-9.841
		c-0.887-0.885-1.043-2.188-0.365-2.968c1.51-1.927,3.177-3.594,5.052-5.104c0.833-0.677,2.136-0.521,2.968,0.365l9.896,9.426
		l9.842-9.426c0.889-0.885,2.188-1.042,2.971-0.365c1.931,1.51,3.597,3.177,5.104,5.104c0.678,0.781,0.521,2.083-0.363,2.968
		l-9.844,9.843L374.968,34.89z"/>
</g>
<g>
	<path fill="#CDCCCC" d="M425.748,24.998c0,13.801-11.197,24.998-24.998,24.998s-24.998-11.197-24.998-24.998
		C375.752,11.198,386.949,0,400.75,0S425.748,11.198,425.748,24.998z M415.801,29.998c0.938,0,1.719-0.729,1.771-1.719
		c0.209-2.188,0.209-4.375,0-6.562c-0.055-0.99-0.832-1.719-1.771-1.719h-30.102c-0.938,0-1.719,0.729-1.823,1.719
		c-0.156,2.187-0.156,4.375,0,6.562c0.104,0.99,0.886,1.719,1.823,1.719H415.801z"/>
</g>
<g>
	<path fill="#CDCCCC" d="M475.744,5.833v28.331c0,1.613-1.146,2.969-2.762,3.28c-0.312,0.052-6.666,1.146-15.57,1.562v3.959
		l10.467,2.916c0.781,0.261,1.303,1.041,1.199,1.875c-0.156,0.781-0.834,1.406-1.668,1.406h-33.329c-0.833,0-1.51-0.625-1.667-1.406
		c-0.104-0.834,0.417-1.614,1.198-1.875l10.468-2.916v-3.959c-8.906-0.416-15.259-1.51-15.572-1.562
		c-1.613-0.313-2.76-1.667-2.76-3.28V5.833c0-1.615,1.198-3.021,2.76-3.281c0.417-0.052,10.416-1.719,22.237-1.719
		s21.769,1.667,22.187,1.719C474.545,2.812,475.744,4.219,475.744,5.833z M469.078,31.455V8.333
		c-3.699-0.468-10.678-1.198-18.333-1.198s-14.634,0.729-18.332,1.198v23.123c3.593,0.469,10.521,1.198,18.332,1.25
		C458.557,32.653,465.484,31.924,469.078,31.455z M451.891,27.394c-0.52-0.156-2.916-1.823-5.311-3.75l-1.303,3.229
		c-0.155,0.363-0.521,0.625-0.889,0.625h-0.052c-0.364,0-0.729-0.209-0.885-0.521s-3.697-7.187-4.375-13.384
		c-0.052-0.26,0.052-0.573,0.312-0.781c0.209-0.26,0.521-0.365,0.834-0.312c6.354,0.833,13.021,4.218,13.279,4.375
		c0.364,0.208,0.572,0.573,0.572,0.938c0,0.417-0.262,0.729-0.625,0.885l-3.333,1.406c1.875,2.343,3.593,4.843,3.801,5.26
		c0.312,0.677,0.156,1.146-0.364,1.667C453.037,27.549,452.672,27.602,451.891,27.394z"/>
</g>
<g>
	<path fill="#CDCCCC" d="M500.11,45.308c0.568,0.521,0.729,1.354,0.521,2.03c-0.209,0.729-0.834,1.304-1.562,1.459
		c-9.638,1.875-20.832,0.988-21.304,0.938c-0.47-0.053-0.886-0.262-1.194-0.574c-0.312-0.312-0.521-0.729-0.573-1.249
		c-0.053-0.417-0.938-11.614,0.938-21.248c0.155-0.78,0.681-1.354,1.405-1.562c0.729-0.26,1.511-0.052,2.084,0.469l5.052,5.104
		c3.696-2.656,8.021-5.261,9.374-5.573c1.25-0.312,2.707,0.156,4.166,1.614c1.457,1.459,1.931,2.865,1.615,4.166
		c-0.312,1.198-2.918,5.678-5.574,9.375L500.11,45.308z M524.534,23.331c-0.156,0.729-0.729,1.354-1.406,1.562
		c-0.729,0.208-1.562,0.052-2.082-0.521l-5.053-5.052c-3.697,2.656-8.021,5.208-9.373,5.573c-1.303,0.312-2.709-0.156-4.166-1.615
		c-1.459-1.458-1.928-2.916-1.615-4.166c0.312-1.198,2.916-5.677,5.572-9.374l-5.104-5.051c-0.521-0.573-0.729-1.354-0.469-2.083
		c0.207-0.729,0.78-1.25,1.562-1.406c9.635-1.875,20.832-0.989,21.301-0.938c0.47,0.052,0.886,0.261,1.197,0.573
		c0.311,0.312,0.521,0.729,0.567,1.198C525.524,2.499,526.409,13.697,524.534,23.331z"/>
</g>
<g>
	<path fill="#CDCCCC" d="M550.295,27.706c-2.292,2.76-3.333,6.197-3.333,9.842c0,3.438,1.042,6.51,2.863,9.114h-1.821
		c-15.78,0-20.623-0.886-20.832-0.938c-0.469-0.051-0.885-0.363-1.146-0.729c-0.265-0.364-0.365-0.885-0.265-1.301
		c0.938-4.428,2.972-7.709,6.931-10.156c1.041-0.625,2.234-1.094,3.484-1.613c2.396-0.99,5.104-2.084,5.625-3.803
		c0.364-1.197-0.261-2.864-1.667-4.947c-4.271-6.822-5.052-12.655-2.292-17.342C540.034,2.188,543.94,0,548.21,0
		c4.271,0,8.229,2.188,10.363,5.833c0.47,0.833,0.886,1.771,1.146,2.708c1.094,3.489,0.312,7.551-1.406,10.728
		c-0.986,1.927-2.604,3.177-4.219,4.583C552.794,24.945,551.389,26.351,550.295,27.706z M550.712,37.497
		c0-6.928,5.572-12.5,12.499-12.5c6.875,0,12.5,5.572,12.5,12.5c0,6.926-5.625,12.498-12.5,12.498
		C556.284,49.995,550.712,44.423,550.712,37.497z M567.95,44.058l1.979-1.979c0.312-0.364,0.312-0.885,0-1.25l-3.334-3.332
		l3.334-3.334c0.312-0.312,0.312-0.885,0-1.25l-1.979-1.979c-0.365-0.312-0.888-0.312-1.25,0l-3.334,3.334l-3.332-3.334
		c-0.312-0.312-0.887-0.312-1.25,0l-1.98,1.979c-0.312,0.365-0.312,0.938,0,1.25l3.334,3.334l-3.334,3.332
		c-0.312,0.365-0.312,0.886,0,1.25l1.98,1.979c0.363,0.312,0.885,0.312,1.25,0l3.332-3.332l3.334,3.332
		C567.062,44.37,567.585,44.37,567.95,44.058z"/>
</g>
<g>
	<path fill="#CDCCCC" d="M36.664,25.207c0,6.613-0.209,13.071-0.574,19.373c-0.156,2.396-1.979,4.375-4.322,4.688
		c-4.479,0.572-8.957,0.729-13.436,0.729s-9.01-0.156-13.488-0.729C2.5,48.956,0.678,46.975,0.573,44.58
		C0.209,38.381,0,31.716,0,24.997c0-6.51,0.156-13.124,0.573-19.425C0.677,3.176,2.5,1.25,4.844,0.885
		C9.323,0.312,13.854,0,18.332,0s8.958,0.312,13.436,0.885c2.344,0.365,4.166,2.292,4.322,4.688
		C36.455,12.135,36.664,18.697,36.664,25.207z M30.205,22.343c-0.053-4.479-0.26-9.01-0.676-14.53
		c-0.053-0.417-0.312-0.729-0.73-0.781c-3.645-0.417-7.029-0.625-10.467-0.625S11.457,6.615,7.863,7.032
		c-0.416,0.052-0.729,0.364-0.78,0.781C6.719,13.229,6.51,18.281,6.51,23.437c0,4.062,0.104,8.125,0.365,12.5
		c0.052,0.416,0.363,0.729,0.781,0.729h21.353c0.416,0,0.729-0.312,0.729-0.729C30.049,30.832,30.205,26.56,30.205,22.343z
		 M21.82,43.33c0-1.875-1.613-3.385-3.489-3.385c-1.927,0-3.386,1.51-3.386,3.385c0,1.927,1.459,3.489,3.386,3.489
		C20.207,46.819,21.82,45.256,21.82,43.33z"/>
</g>
<g>
	<path fill="#CDCCCC" d="M115.405,74.992c0,13.801-11.197,24.998-24.998,24.998c-13.801,0-24.998-11.197-24.998-24.998
		c0-13.8,11.197-24.997,24.998-24.997C104.208,49.995,115.405,61.192,115.405,74.992z M94.051,89.991
		c0.938,0,1.666-0.729,1.666-1.667v-1.666c0-0.938-0.729-1.666-1.666-1.666l0.053-13.333c0-0.938-0.78-1.667-1.666-1.667h-5.676
		c-0.938,0-1.667,0.729-1.667,1.667v1.667c0,0.938,0.729,1.667,1.667,1.667v10c-0.938,0-1.667,0.729-1.667,1.666v1.666
		c0,0.938,0.729,1.667,1.667,1.667L94.051,89.991L94.051,89.991z M94.208,61.713c0-1.979-1.77-3.854-3.801-3.854
		c-2.031,0-3.802,1.875-3.802,3.854c0,2.031,1.771,3.75,3.802,3.75C92.438,65.462,94.208,63.743,94.208,61.713z"/>
</g>
<g>
	<path fill="#CDCCCC" d="M123.738,59.994c0,2.292-1.875,4.167-4.166,4.167c-2.292,0-4.167-1.875-4.167-4.167
		c0-2.291,1.875-4.166,4.167-4.166C121.863,55.828,123.738,57.703,123.738,59.994z M115.405,74.993c0-2.292,1.875-4.167,4.167-4.167
		c2.291,0,4.166,1.875,4.166,4.167s-1.875,4.167-4.166,4.167C117.28,79.16,115.405,77.285,115.405,74.993z M115.405,89.992
		c0-2.291,1.875-4.166,4.167-4.166c2.291,0,4.166,1.875,4.166,4.166s-1.875,4.166-4.166,4.166
		C117.28,94.158,115.405,92.283,115.405,89.992z M130.404,62.442v-4.895c0-0.938,0.729-1.719,1.614-1.719h29.424
		c1.094,0,2.031,0.729,2.135,1.719c0.209,2.187,0.209,2.708,0,4.895c-0.104,0.99-1.041,1.719-2.135,1.719h-29.424
		C131.237,64.161,130.404,63.484,130.404,62.442z M132.018,79.16c-0.781,0-1.614-0.678-1.614-1.719v-4.896
		c0-0.938,0.729-1.719,1.614-1.719h29.424c1.094,0,2.031,0.729,2.135,1.719c0.209,2.187,0.209,2.708,0,4.896
		c-0.104,0.988-1.041,1.719-2.135,1.719H132.018L132.018,79.16z M132.018,94.158c-0.781,0-1.614-0.678-1.614-1.719v-4.895
		c0-0.938,0.729-1.72,1.614-1.72h29.424c1.094,0,2.031,0.729,2.135,1.72c0.209,2.187,0.209,2.706,0,4.895
		c-0.104,0.99-1.041,1.719-2.135,1.719H132.018z"/>
</g>
<g>
	<path fill="#CDCCCC" d="M213.122,99.56c-0.469,0.469-0.938,0.729-1.562,0.729c-0.312,0-0.574-0.053-0.834-0.156
		c-5.781-2.031-11.77-4.01-17.707-5.938c-0.363-0.156-0.677-0.363-0.988-0.625l-27.55-27.705c-0.833-0.781-0.989-2.083-0.364-3.073
		c1.562-2.5,3.333-4.739,5.364-6.666c2.083-2.083,4.479-3.854,7.083-5.468c0.99-0.573,2.24-0.469,3.073,0.364l27.551,27.707
		c0.312,0.261,0.52,0.625,0.625,0.99c1.926,5.938,3.75,11.771,5.729,17.549C213.901,98.206,213.797,98.882,213.122,99.56z
		 M205.518,88.31c-0.781-2.291-1.562-4.582-2.293-6.875L177.5,55.396c-0.885,0.677-1.771,1.562-2.656,2.292l24.894,24.893
		c0.938,0.99,0.886,2.344-0.104,3.334c-0.469,0.469-0.938,0.729-1.562,0.729c-0.623,0-1.25-0.155-1.771-0.676l-24.999-25.051
		c-0.885,0.938-1.667,1.979-2.343,2.968l25.726,25.831c2.24,0.729,4.844,1.512,7.135,2.293L205.518,88.31z"/>
</g>
<path fill="#CDCCCC" d="M512.734,202.057c1.979-5.778,3.804-11.611,5.729-17.549c0.104-0.365,0.313-0.729,0.625-0.99l27.551-27.707
	c0.833-0.833,2.083-0.937,3.073-0.364c2.604,1.614,5,3.385,7.083,5.468c2.03,1.927,3.802,4.166,5.364,6.666
	c0.625,0.99,0.469,2.292-0.364,3.073l-27.55,27.705c-0.311,0.262-0.625,0.469-0.988,0.625c-5.938,1.928-11.926,3.907-17.707,5.938
	c-0.26,0.103-0.521,0.156-0.834,0.156c-0.624,0-1.093-0.26-1.562-0.729C512.48,203.671,512.376,202.995,512.734,202.057z
	 M524.457,196.798c2.291-0.781,4.895-1.564,7.135-2.293l25.727-25.831c-0.676-0.989-1.459-2.03-2.344-2.968l-24.998,25.051
	c-0.521,0.521-1.148,0.676-1.771,0.676c-0.624,0-1.094-0.26-1.562-0.729c-0.99-0.99-1.041-2.344-0.104-3.334l24.895-24.893
	c-0.886-0.73-1.771-1.615-2.656-2.292l-25.726,26.039c-0.731,2.293-1.512,4.584-2.293,6.875L524.457,196.798z"/>
<g>
	<path fill="#CDCCCC" d="M215.463,93.013c-0.729-0.365-1.198-1.146-1.25-1.979c0-0.104-0.469-7.916-0.469-16.041
		c0-8.124,0.469-15.936,0.469-16.04c0.052-0.833,0.521-1.562,1.25-1.979s1.614-0.417,2.343,0
		c11.042,6.197,20.518,15.936,20.883,16.353c0.885,0.938,0.885,2.396,0,3.333c-0.365,0.417-9.844,10.155-20.883,16.354
		C217.077,93.429,216.192,93.429,215.463,93.013z"/>
</g>
<g>
	<path fill="#CDCCCC" d="M289.356,70.836c0,11.51-9.322,20.832-20.832,20.832c-3.072,0-6.042-0.678-8.645-1.875l-12.551,9.218
		c-2.187,1.667-5.312,1.198-6.979-1.042c-1.354-1.822-1.302-4.219,0-5.988l9.218-12.5c-1.198-2.604-1.875-5.571-1.875-8.644
		c0-11.51,9.322-20.832,20.832-20.832C280.034,50.005,289.356,59.327,289.356,70.836z M283.106,70.836
		c0-8.072-6.51-14.582-14.582-14.582c-8.072,0-14.582,6.51-14.582,14.582c0,8.072,6.51,14.582,14.582,14.582
		C276.596,85.418,283.106,78.908,283.106,70.836z"/>
</g>
<g>
	<path fill="#CDCCCC" d="M337.699,53.477c-0.051,0.781-0.781,19.321-5.26,40.256c-0.264,0.99-0.889,1.875-1.822,2.292
		c-0.469,0.261-0.99,0.364-1.459,0.364c-0.521,0-1.041-0.156-1.51-0.364l-10.889-5.521l-4.844,7.707
		c-0.572,1.094-1.717,1.771-2.863,1.771c-0.312,0-0.569-0.053-0.885-0.104c-1.458-0.365-2.135-1.771-2.135-3.281V86.235
		L322.7,67.122l-22.447,14.582l-9.062-4.01c-0.989-0.521-1.666-1.511-1.822-2.605c-0.104-1.146,0.365-2.239,1.198-2.968
		c18.696-15.259,41.82-21.717,42.808-21.977c1.041-0.312,2.188-0.104,3.021,0.573C337.283,51.342,337.752,52.436,337.699,53.477z"/>
</g>
<g>
	<path fill="#CDCCCC" d="M363.778,98.339c-12.863,0-23.175-10.469-23.175-23.332c0-2.812,0.312-5.521,1.25-8.072l-3.438-0.416
		c-0.573-0.104-1.042-0.521-1.146-1.094c-0.154-0.521,0.104-1.094,0.57-1.406c4.221-2.865,9.53-5.208,10.363-5.364
		c0.573-0.104,1.094,0.104,1.405,0.573c0.521,0.729,2.604,6.146,3.541,11.145c0.152,0.521-0.104,1.093-0.572,1.406
		c-0.26,0.156-0.521,0.208-0.729,0.208c-0.312,0-0.625-0.104-0.834-0.26l-2.969-2.292c-0.625,1.771-0.988,3.646-0.988,5.572
		c0,9.166,7.498,16.666,16.719,16.666c9.166,0,16.666-7.5,16.666-16.666s-7.5-16.665-16.666-16.665
		c-3.279,0-6.305,0.938-8.854,2.604l-2.188-6.458c3.277-1.771,7.027-2.812,11.041-2.812c12.859,0,23.332,10.468,23.332,23.331
		C387.11,87.87,376.642,98.339,363.778,98.339z M367.112,63.863l-0.416,10.52l3.693,7.603c0.416,0.99,0,2.137-0.986,2.554
		c-0.834,0.364-1.723,0.104-2.238-0.573l-6.042-7.343c-0.521-0.625-0.677-1.406-0.47-2.136v-0.052l2.709-11.197
		c0.26-0.99,1.303-1.615,2.344-1.302C366.591,62.144,367.165,62.977,367.112,63.863z"/>
</g>
<g>
	<path fill="#CDCCCC" d="M432.049,62.276c0,0-19.736,28.174-21.353,30.414c-2.188,2.969-6.354,3.125-8.646,0
		c-1.562-2.188-14.477-20.362-14.477-20.362c-0.677-0.99-0.625-2.292,0.208-3.021c1.822-1.562,3.802-2.916,5.937-4.114
		c0.938-0.469,2.188-0.104,2.865,0.885l9.791,13.749l16.717-23.748c0.679-0.99,1.929-1.354,2.865-0.833
		c2.082,1.146,4.061,2.448,5.885,4.062C432.674,59.985,432.727,61.288,432.049,62.276z"/>
</g>
<g>
	<path fill="#CDCCCC" d="M482.512,59.54v30.934c0,3.178-2.449,5.833-5.574,6.146c-6.354,0.572-13.066,0.886-19.424,0.886
		c-6.354,0-13.124-0.312-19.425-0.886c-3.177-0.313-5.573-2.971-5.573-6.146V59.54c0-3.177,2.396-5.833,5.572-6.146
		c6.302-0.573,13.072-0.885,19.425-0.885c6.354,0,13.071,0.312,19.425,0.885C480.062,53.707,482.512,56.363,482.512,59.54z
		 M470.846,90.733V59.279c-4.428-0.26-8.854-0.521-13.276-0.521c-6.146,0-12.291,0.364-18.388,0.938v30.622
		c6.097,0.574,12.238,0.938,18.388,0.938C461.992,91.255,466.418,90.995,470.846,90.733z M479.906,75.006
		c0-1.771-1.457-3.229-3.229-3.229c-1.77,0-3.229,1.458-3.229,3.229s1.459,3.229,3.229,3.229
		C478.449,78.235,479.906,76.776,479.906,75.006z"/>
</g>
<g>
	<path fill="#CDCCCC" d="M529.174,70.163c0,3.021-0.207,6.041-0.676,8.957c-0.574,3.803-4.844,7.24-8.594,7.656
		c-3.806,0.363-7.556,0.571-11.306,0.625l-9.942,9.635c-0.312,0.312-0.729,0.469-1.146,0.469c-0.26,0-0.469-0.053-0.678-0.104
		c-0.625-0.262-0.988-0.887-0.988-1.562v-8.541c-1.354-0.104-2.708-0.156-4.062-0.312c-3.75-0.416-8.021-4.062-8.646-7.863
		c-0.417-2.916-0.625-5.936-0.625-8.905c0-3.073,0.208-6.145,0.625-9.114c0.625-3.802,4.896-7.447,8.646-7.864
		c4.688-0.469,9.375-0.729,14.062-0.729c4.688,0,9.374,0.26,14.062,0.729c3.75,0.417,8.02,4.062,8.594,7.864
		C528.967,64.07,529.174,67.143,529.174,70.163z"/>
</g>
<g>
	<path fill="#CDCCCC" d="M559.172,88.183c0,1.094-0.729,2.084-1.822,2.396c-4.271,1.197-8.75,1.927-13.177,1.927
		s-8.854-0.729-13.124-1.927c-1.094-0.312-1.875-1.303-1.875-2.396V61.832c0-1.093,0.781-2.083,1.875-2.396
		c4.271-1.146,8.697-1.927,13.124-1.927s8.905,0.781,13.177,1.927c1.096,0.312,1.822,1.302,1.822,2.396V88.183z M573.076,88.652
		c-5.521-4.947-10.154-12.447-10.312-12.76c-0.36-0.521-0.36-1.25,0-1.771c0.156-0.312,4.791-7.499,10.312-12.395
		c0.469-0.469,1.197-0.573,1.875-0.312c0.572,0.26,0.885,0.885,0.885,1.615v24.32c0,0.679-0.312,1.304-0.885,1.562
		c-0.26,0.104-0.521,0.155-0.729,0.155C573.805,89.068,573.389,88.912,573.076,88.652z"/>
</g>
<g>
	<path fill="#CDCCCC" d="M82.445,131.248c0.312-0.416,0.781-0.676,1.355-0.676c0.312,0,0.885,0.312,0.885,0.312l11.561,5.832
		c0.574,0.312,0.938,0.885,0.938,1.562c-0.207,2.864-1.406,5.729-3.281,7.551c-2.135,2.137-5.153,3.179-8.592,3.179
		c-7.031,0-15.884-4.115-23.279-11.51c-11.042-11.093-15.052-25.674-8.594-32.131c1.823-1.823,5-2.76,7.812-3.021
		c0.678,0,1.198,0.365,1.51,0.938l6.354,11.562c0.156,0.312,0.261,0.573,0.261,0.937c0,0.521-0.261,0.99-0.625,1.354l-4.947,4.896
		c-0.521,0.573-0.625,1.406-0.208,2.083c1.405,2.344,3.125,4.583,5.208,6.616c2.082,2.082,4.322,3.854,6.615,5.26
		c0.676,0.416,1.51,0.312,2.082-0.262L82.445,131.248z"/>
</g>
<g>
	<path fill="#CDCCCC" d="M19.414,169.53c0.073,0.515-0.075,1.03-0.48,1.436c-0.221,0.221-0.846,0.406-0.846,0.406l-12.299,4.051
		c-0.626,0.186-1.289,0.038-1.768-0.441c-1.879-2.172-3.057-5.045-3.02-7.66c-0.001-3.021,1.396-5.892,3.828-8.323
		c4.972-4.972,14.142-8.322,24.599-8.322c15.652,0.036,28.798,7.51,28.797,16.643c0,2.578-1.584,5.487-3.388,7.66
		c-0.479,0.48-1.105,0.589-1.73,0.404l-12.669-3.682c-0.331-0.11-0.589-0.221-0.847-0.478c-0.368-0.369-0.515-0.884-0.515-1.399
		l0.036-6.96c-0.037-0.773-0.552-1.436-1.326-1.62c-2.651-0.664-5.45-1.031-8.361-0.995c-2.944,0-5.781,0.331-8.397,0.958
		c-0.772,0.184-1.288,0.848-1.287,1.658L19.414,169.53z"/>
</g>
<g>
	<path fill="#CCCCCC" d="M24.617,127.75c0.052,0.469,0.938,11.666-0.938,21.248c-0.156,0.781-0.677,1.354-1.406,1.562
		c-0.729,0.26-1.511,0.052-2.031-0.469l-5.104-5.104c-3.646,2.656-7.968,5.26-9.322,5.573c-1.302,0.312-2.708-0.156-4.166-1.615
		c-1.458-1.458-1.927-2.864-1.615-4.166c0.312-1.146,2.917-5.677,5.573-9.374l-5.104-5.052c-0.521-0.521-0.729-1.302-0.469-2.031
		c0.208-0.729,0.781-1.25,1.562-1.406c9.583-1.875,20.779-0.99,21.248-0.938c0.469,0.052,0.885,0.26,1.198,0.573
		C24.356,126.864,24.564,127.282,24.617,127.75z M49.823,123.012c-0.208,0.729-0.833,1.25-1.562,1.406
		c-9.583,1.875-20.779,0.99-21.248,0.938c-0.469-0.052-0.885-0.26-1.198-0.573s-0.521-0.729-0.573-1.198
		c-0.052-0.469-0.938-11.666,0.938-21.248c0.156-0.729,0.677-1.354,1.406-1.562s1.511-0.052,2.031,0.521l5.052,5.052
		c3.697-2.656,8.02-5.26,9.374-5.573c1.302-0.312,2.708,0.156,4.166,1.615c1.458,1.458,1.927,2.864,1.615,4.166
		c-0.312,1.146-2.917,5.677-5.573,9.374l5.052,5.052C49.875,121.501,50.031,122.282,49.823,123.012z"/>
</g>
<g>
	<path fill="#CCCCCC" d="M147.179,125.677c0,13.801-11.197,24.998-24.998,24.998c-13.801,0-24.998-11.197-24.998-24.998
		c0-13.801,11.197-24.998,24.998-24.998C135.982,100.679,147.179,111.876,147.179,125.677z M140.826,125.677
		c0-10.103-8.489-18.644-18.644-18.644c-10.103,0-18.644,8.541-18.644,18.644c0,10.104,8.541,18.644,18.644,18.644
		C132.337,144.321,140.826,135.78,140.826,125.677z M128.066,135.468l-8.229-6.562c-0.677-0.625-1.042-1.51-0.989-2.344
		l0.573-13.228c0.052-1.562,1.354-2.708,2.864-2.656c1.458,0.052,2.604,1.25,2.656,2.656l0.521,11.822l6.458,6.354
		c1.042,1.146,0.989,2.917-0.156,3.958C130.723,136.405,129.108,136.405,128.066,135.468z"/>
</g>
<g>
	<path fill="#CCCCCC" d="M172.054,150.5c-13.812,0-25-11.188-25-25s11.188-25,25-25s25,11.188,25,25S185.867,150.5,172.054,150.5z"
		/>
</g>
<g>
	<path fill="#FFFFFF" d="M188.632,128.66c-0.084,0.923-0.839,1.595-1.763,1.595h-10.158v10.158c0,0.923-0.714,1.679-1.595,1.763
		c-2.057,0.21-4.156,0.21-6.213,0c-0.881-0.084-1.595-0.839-1.595-1.763v-10.158h-10.116c-0.965,0-1.721-0.671-1.805-1.595
		c-0.21-2.057-0.21-4.114,0-6.171c0.084-0.923,0.839-1.637,1.805-1.637h10.116v-10.116c0-0.965,0.713-1.721,1.595-1.805
		c2.057-0.21,4.156-0.21,6.213,0c0.881,0.084,1.595,0.839,1.595,1.805v10.116h10.158c0.923,0,1.679,0.714,1.763,1.637
		C188.842,124.546,188.842,126.603,188.632,128.66z"/>
</g>
<g>
	<g>
		<g>
			<path fill="#CCCCCC" d="M201.246,122.435c-1.904,0-3.448-1.544-3.448-3.448c0-12.02,9.213-18.309,18.313-18.309
				c8.967,0,18.045,6.127,18.045,17.836c0,1.904-1.544,3.448-3.448,3.448s-3.448-1.544-3.448-3.448c0-3.418-1.169-6.251-3.38-8.192
				c-1.989-1.746-4.821-2.747-7.769-2.747c-5.683,0-11.417,3.528-11.417,11.412C204.694,120.891,203.15,122.435,201.246,122.435z"/>
		</g>
	</g>
	<g>
		<g>
			<path fill="#CCCCCC" d="M211.347,122.435c-1.904,0-3.448-1.544-3.448-3.448c0-2.389,0.918-4.519,2.586-5.997
				c1.458-1.292,3.381-2.004,5.417-2.004c4.516,0,7.921,3.377,7.921,7.856c0,1.904-1.544,3.448-3.448,3.448
				s-3.448-1.544-3.448-3.448c0-0.518-0.161-0.66-0.222-0.712c-0.174-0.153-0.481-0.248-0.802-0.248
				c-1.106,0-1.106,0.774-1.106,1.105C214.795,120.891,213.251,122.435,211.347,122.435z"/>
		</g>
	</g>
	<g>
		<g>
			<path fill="#CCCCCC" d="M216.029,150.677c-0.006,0-0.011,0-0.017,0c-1.904-0.003-3.446-1.549-3.443-3.454
				c0.003-1.902,1.547-3.443,3.448-3.443c0.003,0,0.007,0,0.012,0c0.974,0,1.435-0.336,1.729-0.63
				c0.961-0.962,1.509-3.13,1.504-5.95c-0.004-1.904,1.537-3.451,3.441-3.455c0.002,0,0.005,0,0.007,0
				c1.901,0,3.444,1.54,3.448,3.441c0.01,4.844-1.176,8.491-3.522,10.839C220.902,149.761,218.617,150.677,216.029,150.677z"/>
		</g>
	</g>
	<g>
		<g>
			<path fill="#CCCCCC" d="M226.158,137.201l-6.896-0.014c0.009-4.453,2.412-7.954,4.532-11.043c1.86-2.709,3.466-5.05,3.466-7.631
				h6.896c0,4.721-2.485,8.34-4.677,11.534C227.7,132.64,226.163,134.879,226.158,137.201z"/>
		</g>
	</g>
	<g>
		<g>
			<path fill="#FFFFFF" d="M204.705,143.828c-0.744,0-1.488-0.284-2.056-0.851c-1.135-1.135-1.135-2.976,0-4.111l33.128-33.128
				c1.135-1.134,2.976-1.134,4.111,0c1.135,1.135,1.135,2.976,0,4.111l-33.128,33.128
				C206.192,143.544,205.449,143.828,204.705,143.828z"/>
		</g>
	</g>
	<g>
		<g>
			<path fill="#CCCCCC" d="M201.246,142.818c-0.883,0-1.765-0.337-2.438-1.01c-1.347-1.347-1.347-3.53,0-4.877l34.382-34.382
				c1.347-1.346,3.53-1.346,4.877,0c1.347,1.347,1.347,3.53,0,4.877l-34.382,34.382
				C203.011,142.481,202.129,142.818,201.246,142.818z"/>
		</g>
	</g>
</g>
<g>
	<path fill="#CCCCCC" d="M268.323,142.076v2.656l10.312,2.344c0.833,0.156,1.406,0.938,1.302,1.823
		c-0.104,0.833-0.833,1.458-1.667,1.458h-28.385c-0.834,0-1.562-0.625-1.667-1.458c-0.052-0.885,0.469-1.667,1.302-1.823
		l10.469-2.396v-2.604c-7.812-1.667-14.688-7.76-16.979-15.833c-0.469-1.771,0.573-3.594,2.344-4.115
		c1.719-0.469,3.594,0.572,4.115,2.343c1.875,6.667,8.125,11.303,14.688,11.303c6.563,0,12.813-4.636,14.688-11.303
		c0.521-1.771,2.396-2.812,4.115-2.343c1.771,0.521,2.812,2.396,2.344,4.167C283.011,134.316,276.136,140.409,268.323,142.076z
		 M252.542,110.722c-0.781-5.521,5.208-10.364,11.615-10.364c6.407,0,12.135,4.844,11.458,10.364l-1.667,12.761
		c-0.833,5.989-6.146,8.125-9.792,8.125s-9.115-2.917-9.792-8.125L252.542,110.722z"/>
</g>
<g>
	<g>
		<g>
			<path fill="#FFFFFF" d="M246.514,145.464c-0.792,0-1.584-0.302-2.189-0.907c-1.209-1.209-1.209-3.17,0-4.379l35.292-35.292
				c1.209-1.208,3.17-1.208,4.379,0c1.209,1.21,1.209,3.17,0,4.379l-35.292,35.292C248.1,145.162,247.307,145.464,246.514,145.464z"
				/>
		</g>
	</g>
	<g>
		<g>
			<path fill="#CCCCCC" d="M242.83,144.389c-0.94,0-1.88-0.359-2.598-1.076c-1.435-1.435-1.435-3.76,0-5.196l36.628-36.628
				c1.435-1.434,3.761-1.434,5.196,0c1.434,1.435,1.434,3.761,0,5.196l-36.628,36.628C244.71,144.03,243.771,144.389,242.83,144.389
				z"/>
		</g>
	</g>
</g>
<g>
	<path fill="#CCCCCC" d="M327.212,139.562c0,1.214-0.81,2.312-2.021,2.659c-4.74,1.33-9.714,2.139-14.628,2.139
		c-4.912,0-9.826-0.81-14.566-2.139c-1.214-0.347-2.081-1.445-2.081-2.659V110.31c0-1.214,0.867-2.312,2.081-2.659
		c4.74-1.272,9.654-2.139,14.566-2.139c4.914,0,9.888,0.867,14.628,2.139c1.214,0.347,2.021,1.445,2.021,2.659V139.562z
		 M342.646,140.083c-6.128-5.493-11.272-13.817-11.445-14.164c-0.405-0.578-0.405-1.387,0-1.965
		c0.173-0.347,5.316-8.325,11.445-13.759c0.521-0.52,1.329-0.636,2.082-0.347c0.636,0.289,0.981,0.982,0.981,1.792v26.998
		c0,0.751-0.348,1.446-0.981,1.734c-0.289,0.116-0.578,0.173-0.812,0.173C343.457,140.544,342.994,140.371,342.646,140.083z"/>
</g>
<g>
	<g>
		<g>
			<path fill="#FFFFFF" d="M294.522,150.677c-0.879,0-1.759-0.336-2.43-1.006c-1.342-1.342-1.342-3.519,0-4.861l39.169-39.169
				c1.343-1.341,3.521-1.341,4.86,0c1.342,1.342,1.342,3.518,0,4.86l-39.169,39.17C296.282,150.341,295.402,150.677,294.522,150.677
				z"/>
		</g>
	</g>
	<g>
		<g>
			<path fill="#CCCCCC" d="M290.434,149.483c-1.044,0-2.087-0.398-2.883-1.194c-1.593-1.593-1.593-4.173,0-5.766l40.651-40.652
				c1.593-1.591,4.174-1.591,5.767,0c1.594,1.593,1.594,4.174,0,5.767l-40.652,40.652
				C292.521,149.085,291.478,149.483,290.434,149.483z"/>
		</g>
	</g>
</g>
<g>
	<path fill="#CCCCCC" d="M354.641,107.978c2.957-0.234,5.961-0.234,8.918,0c1.314,0.141,2.302,1.221,2.302,2.488v29.194
		c0,1.267-0.985,2.347-2.302,2.488c-2.957,0.281-5.961,0.281-8.918,0c-1.312-0.141-2.3-1.221-2.3-2.488v-29.194
		C352.341,109.198,353.326,108.119,354.641,107.978z M386.088,142.147c-2.957,0.281-5.961,0.281-8.918,0
		c-1.312-0.141-2.3-1.221-2.3-2.488v-29.194c0-1.267,0.985-2.347,2.3-2.488c2.957-0.234,5.961-0.234,8.918,0
		c1.314,0.141,2.3,1.221,2.3,2.488v29.194C388.388,140.927,387.402,142.006,386.088,142.147z"/>
</g>
<g>
	<path fill="#CCCCCC" d="M389.963,148.933c-0.546-0.061-0.971-0.364-1.272-0.789c-0.304-0.425-0.363-0.91-0.242-1.457
		c0.851-4.005,3.459-7.342,7.1-9.587c0.974-0.546,2.063-0.971,3.216-1.456c2.064-0.85,4.433-1.76,4.854-3.155
		c0.364-1.153-0.546-2.792-1.334-4.005c-3.944-6.128-4.673-11.408-2.064-15.716c2.003-3.337,5.583-5.279,9.527-5.279
		c4.005,0,7.585,1.941,9.587,5.279c2.61,4.309,1.881,9.588-2.062,15.716c-0.788,1.213-1.698,2.852-1.336,4.005
		c0.427,1.396,2.791,2.306,4.854,3.155c1.153,0.485,2.245,0.91,3.216,1.456c3.643,2.245,6.25,5.583,7.16,9.587
		c0.121,0.546,0,1.032-0.304,1.457c-0.305,0.425-0.729,0.728-1.273,0.789c-0.183,0.061-5.583,0.789-19.843,0.789
		S390.146,148.994,389.963,148.933z M446.335,140.377c-0.304,0.425-0.789,0.728-1.272,0.789c-0.122,0.061-3.155,0.486-10.438,0.668
		c-1.7-3.58-4.49-6.675-8.131-8.92c-1.274-0.728-2.61-1.274-3.944-1.759c-0.242-0.122-0.604-0.303-0.971-0.425
		c6.007-9.527,4.975-16.626,2.485-20.692c-1.697-2.852-3.52-4.733-6.432-6.068c2.062-2.67,4.005-4.248,7.585-4.248
		c4.005,0,7.523,1.942,9.525,5.279c2.608,4.308,1.94,9.587-2.002,15.716c-0.851,1.213-1.759,2.852-1.396,4.005
		c0.424,1.396,2.79,2.306,4.854,3.155c1.214,0.486,2.306,0.91,3.216,1.457c3.702,2.245,6.311,5.583,7.16,9.587
		C446.699,139.467,446.577,139.953,446.335,140.377z"/>
</g>
<g>
	<path fill="#CCCCCC" d="M472.05,144.375v2.656l10.312,2.344c0.833,0.156,1.404,0.938,1.302,1.823
		c-0.104,0.833-0.833,1.458-1.667,1.458h-28.386c-0.833,0-1.562-0.625-1.666-1.458c-0.054-0.885,0.469-1.667,1.302-1.823
		l10.469-2.396v-2.604c-7.812-1.667-14.688-7.76-16.979-15.833c-0.471-1.771,0.57-3.594,2.344-4.114
		c1.719-0.469,3.594,0.573,4.114,2.344c1.875,6.667,8.125,11.302,14.688,11.302c6.563,0,12.812-4.635,14.688-11.302
		c0.521-1.771,2.396-2.812,4.114-2.344c1.771,0.521,2.812,2.396,2.344,4.167C486.737,136.614,479.862,142.708,472.05,144.375z
		 M456.27,113.021c-0.78-5.521,5.207-10.365,11.613-10.365s12.137,4.844,11.458,10.365l-1.666,12.76
		c-0.834,5.99-6.146,8.125-9.792,8.125c-3.646,0-9.113-2.917-9.792-8.125L456.27,113.021z"/>
</g>
<g>
	<path fill="#CCCCCC" d="M524.562,126.08c0,0.855-0.382,1.71-1.047,2.28c-0.475,0.38-12.206,10.26-27.502,16.482
		c-0.38,0.143-0.76,0.237-1.188,0.237c-0.522,0-1.093-0.143-1.567-0.428c-0.808-0.475-1.378-1.33-1.426-2.28
		c-0.047-0.333-0.712-8.027-0.712-16.292c0-8.265,0.665-15.96,0.712-16.245c0.048-0.95,0.618-1.805,1.426-2.327
		c0.477-0.285,0.997-0.428,1.567-0.428c0.38,0,0.808,0.095,1.188,0.237c15.296,6.223,27.027,16.103,27.502,16.53
		C524.182,124.37,524.562,125.225,524.562,126.08z"/>
</g>
<g>
	<path fill="#CCCCCC" d="M568.337,151.793c-3.609,0.431-9.268,0.862-17.618,0.862c-16.757,0-22.684-1.724-22.897-1.778
		c-0.861-0.27-1.4-1.132-1.187-2.048c1.077-5.064,3.879-7.758,7.704-10.183c1.024-0.646,2.371-1.185,3.826-1.778
		c2.586-1.024,5.549-2.209,6.195-4.203c0.432-1.293-0.107-3.071-1.562-5.334c-4.523-7.22-5.334-13.47-2.424-18.48
		c2.263-3.879,6.142-6.196,10.345-6.196c4.256,0,8.081,2.317,10.345,6.196c2.909,5.011,2.104,11.261-2.369,18.48
		c-1.455,2.263-1.993,4.041-1.616,5.334c0.646,1.994,3.607,3.179,6.25,4.203c1.399,0.593,2.691,1.131,3.771,1.778
		c3.825,2.425,6.627,5.119,7.705,10.183c0.215,0.916-0.323,1.778-1.186,2.048C573.51,150.878,571.947,151.363,568.337,151.793z"/>
</g>
<g>
	<path fill="#CDCBCB" d="M215.581,165.323c-1.782-1.577-3.717-2.849-5.751-3.968c-0.914-0.509-2.135-0.153-2.797,0.814l-0.429,0.609
		c1.23,0.79,2.413,1.662,3.536,2.654c0.813,0.662,0.864,1.934,0.203,2.9c0,0-19.282,27.524-20.86,29.713
		c-0.413,0.56-0.897,1.016-1.427,1.368c2.25,1.396,5.169,0.829,6.868-1.477c1.579-2.188,20.861-29.713,20.861-29.713
		C216.445,167.257,216.395,165.985,215.581,165.323z"/>
	<path fill="#CDCBCB" d="M204.943,165.323c-1.782-1.576-3.717-2.849-5.75-3.968c-0.915-0.509-2.136-0.153-2.798,0.814
		l-16.332,23.201l-9.565-13.432c-0.661-0.966-1.882-1.323-2.798-0.864c-2.086,1.17-4.02,2.493-5.801,4.019
		c-0.813,0.712-0.864,1.984-0.203,2.952c0,0,12.618,17.755,14.145,19.893c2.238,3.053,6.308,2.9,8.445,0
		c1.579-2.188,20.861-29.713,20.861-29.713C205.807,167.257,205.757,165.985,204.943,165.323z"/>
</g>
<g>
	<path fill="#CDCBCB" d="M158.97,165.391c-1.774-1.569-3.7-2.836-5.726-3.95c-0.91-0.507-2.126-0.152-2.785,0.811l-0.19,0.271
		c1.315,0.828,2.58,1.745,3.774,2.802c0.81,0.659,0.86,1.925,0.202,2.888c0,0-19.196,27.401-20.769,29.58
		c-0.511,0.693-1.133,1.227-1.813,1.599c2.227,1.313,5.073,0.731,6.74-1.53c1.572-2.18,20.769-29.581,20.769-29.581
		C159.83,167.316,159.779,166.05,158.97,165.391z"/>
	<path fill="#CDCBCB" d="M148.725,165.391c-1.774-1.569-3.7-2.836-5.725-3.95c-0.911-0.507-2.126-0.152-2.785,0.811l-0.428,0.606
		c1.225,0.786,2.403,1.653,3.521,2.643c0.81,0.658,0.86,1.925,0.202,2.887c0,0-19.196,27.401-20.769,29.58
		c-0.41,0.558-0.893,1.012-1.42,1.362c2.24,1.39,5.146,0.825,6.838-1.47c1.571-2.18,20.768-29.581,20.768-29.581
		C149.585,167.316,149.535,166.05,148.725,165.391z"/>
	<path fill="#CDCBCB" d="M138.134,165.392c-1.774-1.57-3.7-2.837-5.725-3.951c-0.91-0.507-2.126-0.152-2.785,0.811l-16.259,23.098
		l-9.523-13.373c-0.657-0.961-1.873-1.316-2.785-0.86c-2.077,1.165-4.002,2.482-5.775,4.001c-0.811,0.709-0.86,1.976-0.202,2.938
		c0,0,12.562,17.676,14.081,19.805c2.229,3.039,6.28,2.887,8.408,0c1.572-2.18,20.768-29.581,20.768-29.581
		C138.994,167.316,138.944,166.05,138.134,165.392z"/>
</g>
<g>
	<path fill="#CDCBCB" d="M315.322,195.586c3.281,0.677,8.854,1.719,15.676,1.979v8.02c-10.416-0.469-19.842-2.708-20.259-2.812
		c-1.511-0.365-2.761-1.51-3.125-3.021c-0.052-0.312-1.614-7.5-1.614-19.321s1.614-18.644,1.666-18.956
		c0.365-1.458,1.562-2.604,3.073-2.969c0.417-0.104,9.843-2.343,20.259-2.76v7.968c-6.822,0.26-12.447,1.302-15.676,1.979
		c-0.469,2.708-1.198,8.02-1.198,14.738C314.124,187.306,314.854,192.774,315.322,195.586z M336.83,195.586
		c-0.625-0.364-0.833-1.042-0.833-1.718v-6.562c-5.624-0.625-13.54-2.188-14.53-2.76c-1.25-0.729-2.135-1.927-2.135-3.854
		c0-1.927,0.885-3.177,2.135-3.854c0.99-0.573,8.906-2.187,14.53-2.76v-6.562c0-0.729,0.208-1.354,0.833-1.719
		c0.625-0.312,1.406-0.312,1.979,0.104c7.709,5.156,14.843,13.228,15.104,13.593c0.572,0.677,0.572,1.667,0,2.396
		c-0.261,0.364-7.395,8.384-15.104,13.592c-0.312,0.208-0.676,0.312-1.093,0.312C337.403,195.794,337.091,195.69,336.83,195.586z"/>
</g>
<g>
	<path fill="#CDCBCB" d="M407.409,180.64c0,13.801-11.196,24.998-24.997,24.998s-24.998-11.197-24.998-24.998
		s11.197-24.998,24.998-24.998S407.409,166.839,407.409,180.64z M391.266,166.266c-2.604-1.667-5.625-2.604-8.854-2.604
		c-9.219,0-16.979,7.76-16.979,16.978c0,3.229,0.938,6.25,2.553,8.854L391.266,166.266z M399.389,180.64
		c0-3.229-0.938-6.25-2.604-8.854l-23.227,23.279c2.604,1.614,5.624,2.552,8.854,2.552
		C391.629,197.617,399.389,189.857,399.389,180.64z"/>
</g>
<g>
	<path fill="#CDCBCB" d="M421.477,190.639c-8.02-0.104-10.363-0.573-10.467-0.573c-0.417-0.052-0.729-0.312-0.938-0.625
		c-0.261-0.312-0.312-0.729-0.209-1.094c0.678-2.968,0.521-3.958,3.334-5.937c2.447-1.771,5.624-3.177,6.613-4.27
		c0.781-0.886,1.614-2.031,0.209-3.698c-3.594-4.167-3.959-7.864-2.448-11.197c1.458-3.177,4.687-4.271,7.239-4.271
		c2.551,0,5.78,1.094,7.238,4.271c0.521,1.198,0.834,2.448,0.834,3.75c-3.334,0.469-6.928,2.292-8.802,6.301
		c-1.458,3.229-2.292,8.385,2.239,14.374c-0.469,0.312-1.041,0.625-1.562,0.937h-0.052
		C423.717,189.232,422.57,189.857,421.477,190.639z M421.008,201.731c-0.416-0.052-0.729-0.312-0.938-0.625
		c-0.26-0.312-0.312-0.729-0.207-1.094c0.676-2.968,0.52-3.958,3.332-5.937c2.448-1.771,5.625-3.177,6.614-4.271
		c0.781-0.885,1.614-2.031,0.208-3.697c-3.594-4.167-3.957-7.864-2.447-11.197c1.458-3.177,4.688-4.271,7.238-4.271
		c2.553,0,5.781,1.094,7.239,4.271c1.511,3.333,1.146,7.03-2.448,11.197c-1.405,1.667-0.572,2.812,0.209,3.697
		c0.989,1.094,4.114,2.5,6.613,4.271c2.761,1.979,2.656,2.969,3.334,5.937c0.104,0.365,0,0.781-0.209,1.094
		c-0.208,0.312-0.521,0.573-0.938,0.625c-0.156,0-3.072,0.573-13.801,0.573C424.029,202.304,421.164,201.731,421.008,201.731z
		 M459.547,189.441c-0.209,0.312-0.521,0.573-0.938,0.625c-0.156,0-2.448,0.469-10.469,0.573c-1.094-0.781-2.238-1.406-3.229-2.031
		c-0.521-0.26-1.146-0.625-1.614-0.937c4.53-5.989,3.698-11.093,2.188-14.374c-1.823-4.01-5.417-5.833-8.749-6.301
		c0-1.302,0.312-2.552,0.833-3.75c1.458-3.177,4.687-4.271,7.239-4.271c2.551,0,5.78,1.094,7.238,4.271
		c1.51,3.333,1.146,7.03-2.447,11.197c-1.406,1.667-0.573,2.812,0.208,3.698c0.989,1.093,4.114,2.5,6.614,4.27
		c2.76,1.979,2.656,2.969,3.332,5.937C459.859,188.712,459.754,189.128,459.547,189.441z"/>
</g>
<g>
	<path fill="#CDCBCB" d="M502.141,205.637c-4.531,0-8.229-3.229-9.01-7.551l-17.394-9.114c-1.458,1.042-3.281,1.667-5.26,1.667
		c-5.052,0-9.166-4.114-9.166-9.166c0-5.052,4.114-9.166,9.166-9.166c1.979,0,3.802,0.625,5.26,1.667l17.237-9.062v-0.104
		c0-5.052,4.115-9.166,9.166-9.166c5.052,0,9.166,4.114,9.166,9.166c0,5.051-4.114,9.166-9.166,9.166
		c-1.979,0-3.801-0.625-5.26-1.667l-17.238,9.062v0.208l15.988,8.437c1.666-1.667,3.958-2.708,6.51-2.708
		c5.052,0,9.166,4.114,9.166,9.166C511.307,201.523,507.192,205.637,502.141,205.637z"/>
</g>
<g>
	<path fill="#CDCBCB" d="M609.517,197.721c-0.208,0.885-1.146,1.719-2.031,1.823c-6.666,0.729-13.332,1.094-19.946,1.094
		c-6.562,0-13.123-0.365-19.686-1.094c-0.938-0.104-1.875-0.938-2.031-1.823c-2.135-10.884-2.187-17.082,0-28.331
		c0.156-0.938,1.094-1.771,2.031-1.875c2.604-0.261,5.156-0.469,7.76-0.677c0.365-1.198,0.781-2.76,1.25-4.01
		c0.312-0.938,1.354-1.823,2.291-1.875c2.761-0.208,5.573-0.312,8.385-0.312c2.865,0,5.729,0.104,8.594,0.312
		c0.938,0.052,1.979,0.938,2.291,1.875c0.469,1.25,0.885,2.812,1.25,4.01c2.604,0.208,5.208,0.417,7.812,0.677
		c0.886,0.104,1.823,0.937,2.031,1.875C611.34,178.817,611.34,188.243,609.517,197.721z M601.027,182.306
		c0-7.395-6.093-13.488-13.488-13.488c-7.395,0-13.488,6.093-13.488,13.488s6.094,13.488,13.488,13.488
		C594.935,195.794,601.027,189.701,601.027,182.306z M587.539,190.639c4.584,0,8.333-3.75,8.333-8.333s-3.749-8.333-8.333-8.333
		c-4.582,0-8.332,3.75-8.332,8.333S582.957,190.639,587.539,190.639z"/>
</g>
<g>
	<path fill="#CDCBCB" d="M237.146,160.084h12.915c0.677,0,1.302,0.417,1.562,0.989c0.104,0.208,0.156,0.469,0.156,0.677
		c0,0.417-0.156,0.833-0.469,1.146l-16.3,17.186l16.3,17.238c0.469,0.469,0.573,1.146,0.312,1.771
		c-0.26,0.625-0.885,0.989-1.562,0.989h-12.915c-0.469,0-0.938-0.208-1.25-0.521l-17.03-18.332c-0.573-0.677-0.573-1.614,0-2.239
		l17.03-18.332C236.209,160.293,236.678,160.084,237.146,160.084z"/>
</g>
<g>
	<path fill="#CDCBCB" d="M257.208,166.995c-0.261-2.552-0.261-5.156,0-7.708c0.104-1.094,1.198-1.979,2.447-1.979h42.965
		c1.302,0,2.396,0.885,2.5,1.979c0.261,2.552,0.261,5.156,0,7.708c-0.104,1.094-1.198,1.979-2.5,1.979h-42.965
		C258.406,168.974,257.312,168.089,257.208,166.995z M259.656,187.306c-1.25,0-2.343-0.885-2.447-1.979
		c-0.261-2.552-0.261-5.156,0-7.708c0.104-1.094,1.198-1.979,2.447-1.979h42.965c1.302,0,2.396,0.885,2.5,1.979
		c0.261,2.552,0.261,5.156,0,7.708c-0.104,1.094-1.198,1.979-2.5,1.979H259.656z M259.656,205.637c-1.25,0-2.343-0.885-2.447-1.979
		c-0.261-2.552-0.261-5.156,0-7.708c0.104-1.094,1.198-1.979,2.447-1.979h42.965c1.302,0,2.396,0.885,2.5,1.979
		c0.261,2.552,0.261,5.156,0,7.708c-0.104,1.094-1.198,1.979-2.5,1.979H259.656z"/>
</g>
</svg>
